<?xml version="1.0" standalone="no"?>
<!DOCTYPE svg PUBLIC "-//W3C//DTD SVG 20010904//EN"
 "http://www.w3.org/TR/2001/REC-SVG-20010904/DTD/svg10.dtd">
<svg version="1.0" xmlns="http://www.w3.org/2000/svg"
 width="500.000000pt" height="500.000000pt" viewBox="0 0 500.000000 500.000000"
 preserveAspectRatio="xMidYMid meet">

<g transform="translate(0.000000,500.000000) scale(0.100000,-0.100000)"
fill="#000000" stroke="none">
<path d="M2040 3993 c-218 -28 -365 -127 -441 -297 -33 -73 -36 -77 -79 -90
-109 -32 -314 -157 -425 -259 -107 -98 -163 -224 -164 -371 -1 -38 6 -130 15
-204 16 -133 16 -136 -6 -225 -26 -107 -29 -223 -6 -286 9 -24 32 -69 51 -101
29 -48 35 -67 35 -116 0 -149 79 -290 203 -365 36 -22 62 -48 86 -86 18 -31
59 -86 90 -124 31 -37 77 -105 104 -151 154 -269 424 -461 720 -512 336 -59
722 -2 971 141 34 20 101 77 151 127 131 132 200 272 245 497 35 181 52 552
30 699 -11 75 13 249 36 263 16 9 20 117 4 117 -5 0 -10 21 -10 46 0 66 -35
228 -71 331 -175 496 -585 822 -1176 937 -127 25 -296 38 -363 29z m103 -1078
c244 -77 294 -86 557 -94 229 -8 347 -23 425 -55 l30 -13 -60 -14 c-42 -10
-61 -20 -63 -32 -3 -16 6 -17 116 -11 85 5 121 4 126 -5 5 -7 -4 -11 -27 -11
-19 0 -78 -11 -131 -25 -53 -14 -123 -25 -156 -25 -33 0 -103 11 -156 25 -67
18 -125 25 -193 26 -87 1 -92 2 -51 11 25 5 107 7 182 4 90 -4 139 -2 144 5 3
6 4 13 1 15 -11 11 -156 43 -241 54 -110 14 -167 -1 -252 -63 l-59 -43 -230
-37 c-126 -20 -238 -37 -247 -37 -15 0 -18 9 -18 46 0 25 -9 90 -21 145 -11
56 -19 102 -17 104 2 1 39 -8 83 -21 91 -27 221 -46 253 -37 13 3 22 13 22 24
0 14 -25 31 -87 63 -49 25 -84 45 -80 45 5 1 73 -19 150 -44z m574 -296 c49
-10 103 -40 103 -59 0 -5 -26 3 -57 18 -43 19 -78 27 -135 30 -70 4 -84 1
-140 -26 -82 -39 -123 -74 -115 -95 9 -24 33 -21 70 7 18 14 44 29 60 35 26
10 27 9 27 -22 0 -43 22 -73 64 -87 61 -20 116 21 116 87 0 31 1 32 28 22 15
-5 40 -19 55 -32 l29 -23 -21 -59 c-43 -123 -109 -170 -237 -170 -71 0 -85 3
-121 27 -58 38 -83 95 -83 191 0 41 4 87 10 101 24 63 176 87 347 55z m647 2
c3 -5 -31 -11 -77 -13 -62 -3 -95 -10 -135 -30 -29 -14 -51 -20 -49 -14 5 15
62 47 100 56 46 11 155 12 161 1z m-1080 -115 c3 -11 8 -45 11 -74 11 -102 58
-182 126 -217 40 -21 139 -33 204 -24 122 16 185 70 260 222 43 86 54 102 76
105 23 3 29 -5 63 -80 71 -158 146 -227 269 -246 59 -9 164 0 197 18 17 9 21
6 26 -16 9 -35 -3 -372 -17 -489 -24 -202 -97 -399 -187 -507 -167 -200 -437
-298 -826 -300 -311 -2 -515 71 -713 256 -71 67 -83 83 -78 103 4 18 -16 58
-92 176 -53 83 -108 181 -123 217 -20 48 -33 67 -51 72 -13 4 -51 15 -83 24
-48 13 -69 26 -116 72 -99 100 -126 232 -72 354 37 83 139 162 238 183 29 5
36 1 83 -52 36 -40 75 -105 127 -210 46 -93 81 -153 90 -153 21 0 28 24 83
296 28 136 53 250 56 253 8 7 417 48 433 43 7 -2 14 -14 16 -26z m922 -2 c1
-49 41 -88 90 -88 49 0 98 52 92 95 -4 26 -2 29 16 23 12 -3 28 -14 37 -25 18
-20 59 -160 59 -202 0 -37 -47 -59 -135 -65 -62 -3 -76 -1 -125 25 -60 32
-108 97 -128 174 l-10 41 46 29 c25 16 48 29 51 29 4 0 6 -16 7 -36z"/>
<path d="M2927 2265 c-15 -14 -14 -22 10 -83 54 -141 76 -220 81 -294 4 -77 4
-77 -22 -84 -14 -3 -46 -3 -70 0 -47 7 -71 -8 -64 -41 4 -23 89 -46 137 -38
45 8 88 53 97 100 9 51 -11 159 -53 279 -59 171 -79 198 -116 161z"/>
<path d="M1330 2145 c-25 -30 16 -207 52 -226 30 -16 67 -3 74 26 7 29 -22
159 -42 193 -17 26 -65 30 -84 7z"/>
<path d="M2626 1467 c-58 -42 56 -97 202 -97 56 0 108 7 153 20 65 20 69 23
69 50 0 37 -24 45 -81 25 -88 -32 -213 -27 -309 10 -9 3 -24 -1 -34 -8z"/>
</g>
</svg>
